# xmcd
#
# Track frame offsets: 
#        150
#        22026
#        39842
#        75786
#        99964
#        130117
#        156076
#        186879
#        205192
#        224881
#        236495
#        256094
#        281814
#        308662
#
# Disc length: 4321 seconds
#
# Revision: 0
# Processed by: cddbd v1.5.2PL0 Copyright (c) Steve Scherf et al.
# Submitted via: ExactAudioCopy v0.99pb5
#
DISCID=b410df0e
DTITLE=Charlie Musselwhite - Continental Drifter PLUS
DYEAR=1999
DGENRE=Blues
TTITLE0=NO
TTITLE1=can't stay away from you
TTITLE2=voodoo garden
TTITLE3=Little Star
TTITLE4=Que te parece, cholita?
TTITLE5=Chan Chan (Charlie's Blues)
TTITLE6=Sabroso
TTITLE7=Siboney
TTITLE8=My time someday
TTITLE9=Blues up the river
TTITLE10=Please remember me
TTITLE11=Red Devils - Automatic (2M)
TTITLE12=Lester Butler's 13 - So Low Down
TTITLE13=Canned Heat - On the road again (radio edit)
EXTD=
EXTT0=
EXTT1=
EXTT2=
EXTT3=
EXTT4=
EXTT5=
EXTT6=
EXTT7=
EXTT8=
EXTT9=
EXTT10=
EXTT11=
EXTT12=
EXTT13=
PLAYORDER=
